<?xml version="1.0"?>
<svg xmlns="http://www.w3.org/2000/svg" xmlns:xlink="http://www.w3.org/1999/xlink" xmlns:svgjs="http://svgjs.com/svgjs" version="1.1" width="512" height="512" x="0" y="0" viewBox="0 0 191 191.47639" style="enable-background:new 0 0 512 512" xml:space="preserve" class=""><g><path xmlns="http://www.w3.org/2000/svg" d="m67.359375 71.296875 105.835937-16.058594c4.390626-.699219 7.382813-4.6875 6.683594-9.078125l-5.984375-39.402344c-.699219-4.289062-4.789062-7.28125-9.078125-6.679687l-157.804687 23.839844c-4.390625.695312-7.382813 4.6875-6.683594 9.078125l5.882813 38.902344v111.121093c0 4.390625 3.59375 7.980469 7.980468 7.980469h159.605469c4.386719 0 7.976563-3.589844 7.976563-7.980469v-111.722656zm27.929687-20.347656-21.046874 3.191406 10.574218-25.835937 21.046875-3.191407zm29.03125-28.628907 21.046876-3.191406-10.574219 25.835938-21.046875 3.191406zm-68.429687 34.613282-21.050781 3.191406 10.574218-25.835938 21.046876-3.191406zm97.257813-14.761719 7.28125-17.65625 2.492187 16.257813zm-126.085938-5.089844-7.285156 17.65625-2.492188-16.257812zm103.242188 96.761719-47.882813 31.917969c-5.1875 3.394531-12.269531-.398438-12.367187-6.683594v-63.839844c.097656-6.183593 7.179687-9.972656 12.367187-6.683593l47.882813 31.921874c4.585937 3.191407 4.585937 10.175782 0 13.367188zm0 0" fill="#ffffff" data-original="#000000" style="" class=""/></g></svg>
